<svg version="1.2" xmlns="http://www.w3.org/2000/svg" viewBox="0 0 100 100" width="100" height="100"><defs><linearGradient id="P" gradientUnits="userSpaceOnUse"/><radialGradient id="g1" cx="0" cy="0" r="1" href="#P" gradientTransform="matrix(24.059,-27.613,27.613,24.059,43.662,34.516)"><stop stop-color="#ed1c24"/><stop offset=".18" stop-color="#e31f26"/><stop offset=".69" stop-color="#ca252b"/><stop offset="1" stop-color="#c1272d"/></radialGradient><radialGradient id="g2" cx="0" cy="0" r="1" href="#P" gradientTransform="matrix(16.882,0,0,16.882,51.043,49.435)"><stop stop-color="#ed1c24"/><stop offset=".18" stop-color="#e31f26"/><stop offset=".69" stop-color="#ca252b"/><stop offset="1" stop-color="#c1272d"/></radialGradient></defs><style>.a{fill:#bf272c}.b{fill:url(#g1)}.c{opacity:.5;fill:none;stroke:#000;stroke-miterlimit:10;stroke-width:.2}.d{opacity:.2;fill:#bf272c}.e{fill:url(#g2)}.f{opacity:.5;fill:none;stroke:#d1d3d4;stroke-linecap:round;stroke-linejoin:round;stroke-width:.2}.g{fill:none;stroke:#fff;stroke-linecap:round;stroke-linejoin:round;stroke-width:.2}.h{fill:none;stroke:#fff;stroke-linecap:round;stroke-linejoin:round;stroke-width:.2;stroke-dasharray:0.6143499999999998,0.8191249999999999}.i{fill:none;stroke:#fff;stroke-linecap:round;stroke-linejoin:round;stroke-width:.2;stroke-dasharray:0.6037249999999998,0.8049625}.j{fill:#fff;stroke:#fff;stroke-miterlimit:10;stroke-width:.1}</style><path class="a" d="m64.9 31.4c9.5 8.2 10.5 22.6 2.2 32-8.2 9.5-22.5 10.5-32 2.2-9.4-8.2-10.4-22.6-2.2-32 8.3-9.5 22.6-10.5 32-2.2z"/><path class="b" d="m63.6 32.5c4.5 3.9 1 12.5-6.9 21.6-7.9 9.1-16.2 14-20.7 10.1-9.1-8-10.5-21.2-2.6-30.2 7.9-9.1 21.1-9.5 30.2-1.5z"/><path class="c" d="m67.1 33.5c-1.2 6.8-4.7 14-10.3 20.4-5.8 6.7-12.9 11.3-19.7 13.3"/><path class="d" d="m58.3 55.2c5.2-5.9 8.8-12.8 10.4-19.6q-0.8-1.1-1.6-2.1c-1.3 6.8-4.7 14-10.3 20.4-5.9 6.7-12.9 11.3-19.8 13.3q1.1 0.7 2.3 1.4c6.8-2.4 13.6-7.1 19-13.4z"/><path class="e" d="m37 67.2c6.9-2 13.9-6.6 19.8-13.3 5.6-6.4 9-13.6 10.3-20.4q-0.9-0.9-1.8-1.8c-0.9 7.1-4.5 14.5-10 20.9-5.8 6.6-13.1 11.3-20.3 13q0 0 0 0 1 0.8 2 1.6z"/><path class="f" d="m39.3 68.6c6.8-2.4 13.6-7.1 19-13.4 5.2-5.9 8.8-12.8 10.4-19.6"/><path class="f" d="m65.3 31.7c-0.9 7.1-4.5 14.5-10 20.9-5.8 6.6-13.1 11.3-20.3 13"/><path class="g" d="m39.3 68.6q0.2-0.1 0.3-0.2"/><path class="h" d="m40.4 68.2c6.4-2.5 12.7-7 17.9-13 5-5.7 8.6-12.3 10.2-18.9"/><path class="g" d="m68.6 35.9q0.1-0.1 0.1-0.3"/><path class="g" d="m65.3 31.7q0 0.2 0 0.3"/><path class="i" d="m65.1 32.8c-1.1 6.8-4.6 13.7-9.8 19.8-5.7 6.4-12.7 11-19.6 12.8"/><path class="g" d="m35.3 65.5q-0.1 0.1-0.3 0.1 0 0 0 0"/><path class="j" d="m70.3 39.7c0 0-0.1-0.3 0-0.7 0.1-0.1 0.1-0.1 0.2-0.1 0 0 0 0.3-0.1 0.3 0 0.3 0 0.5-0.1 0.5z"/><path class="j" d="m69.9 40.9c-0.1 0-0.1-0.3 0-0.7 0.1-0.3 0.1-0.5 0.2-0.5 0 0 0.1 0.3 0 0.6-0.1 0.3-0.1 0.6-0.2 0.6z"/><path class="j" d="m69.4 42.2c0 0-0.1-0.3 0-0.6 0.2-0.3 0.2-0.6 0.2-0.6 0.1 0 0.1 0.3 0 0.6-0.1 0.4-0.1 0.6-0.2 0.6z"/><path class="j" d="m68.9 43.5c-0.1 0-0.1-0.3 0-0.6 0.1-0.3 0.2-0.6 0.2-0.5 0.1 0 0.1 0.3 0 0.6-0.1 0.3-0.2 0.6-0.2 0.5z"/><path class="j" d="m68.3 44.8c-0.1 0-0.1-0.3 0.1-0.6 0.1-0.3 0.1-0.6 0.2-0.5 0 0 0.1 0.3-0.1 0.6-0.1 0.3-0.2 0.6-0.2 0.5z"/><path class="j" d="m67.7 46.1c-0.1 0-0.1-0.3 0.1-0.6 0.1-0.3 0.2-0.6 0.2-0.5 0.1 0 0.1 0.3-0.1 0.6-0.1 0.3-0.2 0.5-0.2 0.5z"/><path class="j" d="m67 47.4c0 0 0-0.3 0.1-0.6 0.2-0.3 0.2-0.6 0.3-0.6 0 0.1 0.1 0.3-0.1 0.6-0.2 0.3-0.2 0.6-0.3 0.6z"/><path class="j" d="m66.3 48.6c0 0 0-0.3 0.2-0.6 0.1-0.3 0.2-0.5 0.2-0.5 0.1 0 0.1 0.3-0.1 0.6-0.1 0.3-0.2 0.6-0.3 0.5z"/><path class="j" d="m65.6 49.9c0-0.1 0-0.4 0.1-0.7 0.2-0.3 0.3-0.5 0.3-0.5 0.1 0.1 0.1 0.3-0.1 0.6-0.2 0.3-0.2 0.6-0.3 0.6z"/><path class="j" d="m64.8 51.1c0-0.1 0-0.4 0.2-0.7 0.2-0.2 0.3-0.5 0.3-0.5 0.1 0.1 0 0.4-0.1 0.6-0.2 0.3-0.3 0.6-0.4 0.6z"/><path class="j" d="m64 52.2c0 0 0-0.3 0.2-0.6 0.2-0.2 0.3-0.5 0.3-0.5 0.1 0.1 0.1 0.4-0.1 0.6-0.2 0.3-0.3 0.6-0.4 0.5z"/><path class="j" d="m63.2 53.4c0 0 0-0.3 0.2-0.6 0.2-0.3 0.3-0.5 0.3-0.5 0.1 0.1 0.1 0.3-0.1 0.6-0.2 0.3-0.3 0.5-0.4 0.5z"/><path class="j" d="m62.4 54.5c-0.1 0 0-0.3 0.2-0.6 0.2-0.2 0.3-0.5 0.3-0.4 0.1 0 0 0.3-0.2 0.6-0.2 0.2-0.3 0.5-0.3 0.4z"/><path class="j" d="m61.5 55.7c-0.1-0.1 0-0.4 0.2-0.6 0.2-0.3 0.3-0.5 0.4-0.5 0 0 0 0.3-0.2 0.6-0.3 0.2-0.4 0.5-0.4 0.5z"/><path class="j" d="m60.6 56.8c-0.1-0.1 0-0.4 0.2-0.6 0.2-0.3 0.3-0.5 0.4-0.5 0 0 0 0.3-0.2 0.6-0.3 0.2-0.4 0.5-0.4 0.5z"/><path class="j" d="m59.6 57.8c0 0 0.1-0.3 0.3-0.6 0.2-0.2 0.3-0.4 0.4-0.4 0 0 0 0.3-0.3 0.6-0.2 0.2-0.3 0.5-0.4 0.4z"/><path class="j" d="m58.7 58.9c-0.1-0.1 0-0.4 0.2-0.6 0.3-0.3 0.4-0.5 0.4-0.4 0.1 0 0 0.3-0.2 0.5-0.3 0.3-0.4 0.5-0.4 0.5z"/><path class="j" d="m57.7 59.9c-0.1-0.1 0-0.4 0.2-0.6 0.3-0.2 0.4-0.4 0.4-0.4 0.1 0 0 0.3-0.2 0.5-0.3 0.3-0.4 0.5-0.4 0.5z"/><path class="j" d="m56.6 60.9c0-0.1 0.1-0.4 0.3-0.6 0.3-0.2 0.4-0.4 0.4-0.4 0.1 0 0 0.3-0.2 0.5-0.3 0.3-0.4 0.5-0.5 0.5z"/><path class="j" d="m55.6 61.8c-0.1 0 0-0.3 0.3-0.5 0.2-0.3 0.4-0.5 0.4-0.4 0.1 0 0 0.3-0.3 0.5-0.2 0.2-0.4 0.5-0.4 0.4z"/><path class="j" d="m54.5 62.8c0-0.1 0.1-0.4 0.3-0.6 0.3-0.2 0.4-0.4 0.5-0.4 0 0.1-0.1 0.3-0.3 0.6-0.3 0.2-0.5 0.4-0.5 0.4z"/><path class="j" d="m53.4 63.7c0-0.1 0.1-0.4 0.3-0.6 0.3-0.2 0.4-0.4 0.5-0.3 0 0-0.1 0.3-0.3 0.5-0.3 0.2-0.5 0.4-0.5 0.4z"/><path class="j" d="m52.3 64.5c-0.1 0 0.1-0.3 0.3-0.5 0.3-0.2 0.4-0.4 0.5-0.4 0 0.1-0.1 0.4-0.4 0.6-0.2 0.2-0.4 0.4-0.4 0.3z"/><path class="j" d="m51.1 65.4c0-0.1 0.1-0.4 0.4-0.6 0.3-0.1 0.4-0.3 0.5-0.3 0 0-0.1 0.3-0.4 0.5-0.3 0.2-0.5 0.4-0.5 0.4z"/><path class="j" d="m49.9 66.2c0-0.1 0.1-0.3 0.4-0.5 0.3-0.2 0.5-0.4 0.5-0.4 0 0.1-0.1 0.3-0.4 0.5-0.2 0.2-0.4 0.4-0.5 0.4z"/><path class="j" d="m48.7 66.9c0 0 0.2-0.3 0.4-0.5 0.3-0.1 0.5-0.3 0.5-0.3 0.1 0.1-0.1 0.3-0.4 0.5-0.2 0.2-0.4 0.4-0.5 0.3z"/><path class="j" d="m47.5 67.7c0-0.1 0.1-0.3 0.4-0.5 0.3-0.2 0.5-0.4 0.5-0.3 0.1 0-0.1 0.3-0.4 0.5-0.3 0.1-0.5 0.3-0.5 0.3z"/><path class="j" d="m46.3 68.4c-0.1-0.1 0.1-0.3 0.4-0.5 0.3-0.2 0.5-0.3 0.5-0.3 0 0.1-0.1 0.3-0.4 0.5-0.3 0.1-0.5 0.3-0.5 0.3z"/><path class="j" d="m45 69c0 0 0.2-0.3 0.5-0.4 0.3-0.2 0.4-0.3 0.5-0.3 0 0.1-0.2 0.3-0.5 0.4-0.3 0.2-0.5 0.4-0.5 0.3z"/><path class="j" d="m43.7 69.6c0 0 0.2-0.3 0.5-0.4 0.3-0.1 0.5-0.3 0.5-0.3 0 0.1-0.1 0.3-0.4 0.5-0.3 0.1-0.6 0.3-0.6 0.2z"/><path class="j" d="m43 69.7c0.3-0.1 0.5-0.3 0.5-0.2 0.1 0-0.1 0.3-0.4 0.4-0.3 0.1-0.4 0-0.1-0.2z"/><path class="j" d="m69.6 38.4c0 0-0.1-0.3 0-0.6 0-0.1 0.1-0.2 0.2-0.2 0 0 0 0 0 0.2-0.1 0.3-0.1 0.6-0.2 0.6z"/><path class="j" d="m69.3 39.6c-0.1 0-0.1-0.3 0-0.6 0.1-0.4 0.1-0.6 0.1-0.6 0.1 0 0.1 0.3 0 0.6-0.1 0.3-0.1 0.6-0.1 0.6z"/><path class="j" d="m68.8 40.9c0 0-0.1-0.3 0-0.6 0.1-0.3 0.1-0.6 0.2-0.5 0.1 0 0.1 0.2 0 0.6-0.1 0.3-0.1 0.6-0.2 0.5z"/><path class="j" d="m68.3 42.3c0-0.1-0.1-0.4 0-0.7 0.2-0.3 0.2-0.5 0.2-0.5 0.1 0 0.1 0.3 0 0.6-0.1 0.3-0.1 0.6-0.2 0.6z"/><path class="j" d="m67.8 43.6c-0.1-0.1-0.1-0.4 0-0.7 0.1-0.3 0.2-0.5 0.2-0.5 0.1 0 0.1 0.3 0 0.6-0.1 0.3-0.2 0.6-0.2 0.6z"/><path class="j" d="m67.2 44.9c-0.1-0.1-0.1-0.4 0-0.7 0.2-0.3 0.2-0.5 0.3-0.5 0 0 0.1 0.3-0.1 0.6-0.1 0.3-0.2 0.6-0.2 0.6z"/><path class="j" d="m66.5 46.1c0 0 0-0.3 0.1-0.6 0.2-0.3 0.2-0.6 0.3-0.5 0 0 0.1 0.3-0.1 0.6-0.1 0.3-0.2 0.5-0.3 0.5z"/><path class="j" d="m65.9 47.4c-0.1-0.1-0.1-0.4 0.1-0.7 0.2-0.3 0.2-0.5 0.3-0.5 0 0.1 0 0.3-0.1 0.6-0.2 0.3-0.3 0.6-0.3 0.6z"/><path class="j" d="m65.2 48.6c-0.1 0-0.1-0.3 0.1-0.6 0.2-0.3 0.2-0.6 0.3-0.5 0 0 0 0.3-0.1 0.6-0.2 0.3-0.3 0.5-0.3 0.5z"/><path class="j" d="m64.4 49.8c0 0 0-0.3 0.2-0.6 0.2-0.3 0.2-0.5 0.3-0.5 0 0 0 0.3-0.1 0.6-0.2 0.3-0.3 0.5-0.4 0.5z"/><path class="j" d="m63.7 51c-0.1 0 0-0.3 0.1-0.6 0.2-0.3 0.3-0.5 0.4-0.5 0 0 0 0.3-0.2 0.6-0.2 0.3-0.3 0.5-0.3 0.5z"/><path class="j" d="m62.9 52.2c-0.1-0.1 0-0.4 0.2-0.7 0.1-0.2 0.2-0.5 0.3-0.4 0 0 0 0.3-0.2 0.6-0.2 0.2-0.3 0.5-0.3 0.5z"/><path class="j" d="m62 53.3c0 0 0-0.3 0.2-0.6 0.2-0.3 0.3-0.5 0.4-0.5 0 0.1 0 0.3-0.2 0.6-0.2 0.3-0.3 0.5-0.4 0.5z"/><path class="j" d="m61.2 54.4c-0.1 0 0-0.3 0.2-0.6 0.2-0.2 0.3-0.5 0.3-0.4 0.1 0 0.1 0.3-0.2 0.5-0.2 0.3-0.3 0.6-0.3 0.5z"/><path class="j" d="m60.3 55.5c-0.1 0 0-0.3 0.2-0.6 0.2-0.2 0.3-0.5 0.4-0.4 0 0 0 0.3-0.2 0.5-0.2 0.3-0.4 0.6-0.4 0.5z"/><path class="j" d="m59.4 56.6c-0.1 0 0-0.3 0.2-0.6 0.2-0.3 0.3-0.5 0.4-0.4 0 0 0 0.3-0.2 0.5-0.3 0.3-0.4 0.5-0.4 0.5z"/><path class="j" d="m58.4 57.6c0 0 0.1-0.3 0.3-0.5 0.2-0.3 0.3-0.5 0.4-0.5 0 0.1 0 0.3-0.3 0.6-0.2 0.2-0.3 0.5-0.4 0.4z"/><path class="j" d="m57.4 58.7c0-0.1 0.1-0.4 0.3-0.6 0.3-0.3 0.4-0.5 0.4-0.4 0.1 0 0 0.3-0.2 0.5-0.3 0.3-0.4 0.5-0.5 0.5z"/><path class="j" d="m56.4 59.7c0-0.1 0.1-0.4 0.3-0.6 0.3-0.2 0.4-0.5 0.4-0.4 0.1 0 0 0.3-0.2 0.5-0.3 0.3-0.4 0.5-0.5 0.5z"/><path class="j" d="m55.4 60.6c0 0 0.1-0.3 0.3-0.5 0.3-0.3 0.4-0.5 0.4-0.4 0.1 0 0 0.3-0.3 0.5-0.2 0.2-0.4 0.5-0.4 0.4z"/><path class="j" d="m54.3 61.6c0-0.1 0.1-0.4 0.4-0.6 0.2-0.2 0.4-0.4 0.4-0.4 0 0.1 0 0.3-0.3 0.6-0.3 0.2-0.4 0.4-0.5 0.4z"/><path class="j" d="m53.3 62.5c-0.1-0.1 0-0.4 0.3-0.6 0.3-0.2 0.4-0.4 0.4-0.3 0.1 0 0 0.3-0.3 0.5-0.2 0.2-0.4 0.4-0.4 0.4z"/><path class="j" d="m52.2 63.3c-0.1 0 0-0.3 0.3-0.5 0.3-0.2 0.4-0.4 0.5-0.3 0 0-0.1 0.3-0.4 0.5-0.2 0.2-0.4 0.4-0.4 0.3z"/><path class="j" d="m51 64.2c0 0 0.1-0.3 0.4-0.5 0.3-0.2 0.4-0.4 0.5-0.4 0 0.1-0.1 0.3-0.4 0.5-0.3 0.2-0.4 0.4-0.5 0.4z"/><path class="j" d="m49.9 65c-0.1 0 0.1-0.3 0.3-0.5 0.3-0.2 0.5-0.4 0.5-0.3 0.1 0-0.1 0.3-0.3 0.5-0.3 0.1-0.5 0.4-0.5 0.3z"/><path class="j" d="m48.7 65.8c0-0.1 0.1-0.3 0.4-0.5 0.3-0.2 0.4-0.4 0.5-0.3 0 0-0.1 0.3-0.4 0.4-0.3 0.2-0.5 0.4-0.5 0.4z"/><path class="j" d="m47.5 66.5c-0.1 0 0.1-0.3 0.4-0.5 0.3-0.1 0.5-0.3 0.5-0.3 0 0.1-0.1 0.3-0.4 0.5-0.3 0.2-0.5 0.4-0.5 0.3z"/><path class="j" d="m46.3 67.2c-0.1 0 0.1-0.3 0.4-0.4 0.3-0.2 0.5-0.4 0.5-0.3 0 0-0.1 0.3-0.4 0.4-0.3 0.2-0.5 0.4-0.5 0.3z"/><path class="j" d="m45 67.9c0-0.1 0.2-0.3 0.4-0.5 0.3-0.1 0.5-0.3 0.6-0.2 0 0-0.2 0.2-0.5 0.4-0.3 0.2-0.5 0.3-0.5 0.3z"/><path class="j" d="m43.7 68.5c0 0 0.2-0.3 0.5-0.4 0.3-0.2 0.5-0.3 0.5-0.3 0 0.1-0.1 0.3-0.4 0.4-0.3 0.2-0.5 0.4-0.6 0.3z"/><path class="j" d="m42.4 69.1c0-0.1 0.2-0.3 0.5-0.4 0.3-0.2 0.5-0.3 0.5-0.3 0.1 0.1-0.1 0.3-0.4 0.4-0.3 0.2-0.5 0.3-0.6 0.3z"/><path class="j" d="m41.7 69.2c0.4-0.2 0.6-0.3 0.6-0.3 0 0.1-0.2 0.3-0.5 0.4-0.4 0.2-0.5 0-0.1-0.1z"/><path class="g" d="m39.3 68.6q0.2-0.1 0.3-0.2"/><path class="h" d="m40.4 68.2c6.4-2.5 12.7-7 17.9-13 5-5.7 8.6-12.3 10.2-18.9"/><path class="g" d="m68.6 35.9q0.1-0.1 0.1-0.3"/><path class="j" d="m34.9 63.1c0 0.1-0.3 0.3-0.6 0.4-0.3 0.1-0.7 0.2-0.7 0.2 0-0.1 0.3-0.3 0.7-0.4 0.3-0.1 0.5-0.2 0.6-0.2z"/><path class="j" d="m36 62.8c0.1 0-0.2 0.3-0.5 0.4-0.3 0-0.5 0.2-0.5 0.1 0 0 0.1-0.2 0.5-0.3 0.3-0.1 0.5-0.3 0.5-0.2z"/><path class="j" d="m37.4 62.3c0 0.1-0.2 0.3-0.5 0.4-0.4 0.1-0.6 0.3-0.6 0.2 0 0 0.2-0.3 0.5-0.4 0.3-0.1 0.5-0.2 0.6-0.2z"/><path class="j" d="m38.7 61.8c0 0.1-0.2 0.3-0.5 0.4-0.3 0.2-0.5 0.3-0.6 0.2 0 0 0.2-0.2 0.5-0.3 0.3-0.2 0.5-0.3 0.6-0.3z"/><path class="j" d="m39.9 61.2c0.1 0.1-0.1 0.3-0.4 0.5-0.3 0.1-0.5 0.3-0.6 0.2 0 0 0.2-0.3 0.5-0.4 0.3-0.1 0.5-0.3 0.5-0.3z"/><path class="j" d="m41.2 60.6c0 0.1-0.2 0.3-0.5 0.5-0.3 0.1-0.5 0.3-0.5 0.2 0 0 0.1-0.2 0.4-0.4 0.3-0.1 0.6-0.3 0.6-0.3z"/><path class="j" d="m42.4 60c0 0-0.1 0.3-0.4 0.4-0.3 0.2-0.5 0.4-0.5 0.3-0.1 0 0.1-0.3 0.4-0.4 0.3-0.2 0.5-0.4 0.5-0.3z"/><path class="j" d="m43.6 59.2c0 0.1-0.1 0.4-0.4 0.5-0.3 0.2-0.5 0.4-0.5 0.3 0 0 0.1-0.3 0.4-0.4 0.3-0.2 0.5-0.4 0.5-0.4z"/><path class="j" d="m44.8 58.5c0 0-0.1 0.3-0.4 0.5-0.3 0.2-0.5 0.3-0.5 0.3 0 0 0.1-0.3 0.4-0.5 0.3-0.2 0.4-0.4 0.5-0.3z"/><path class="j" d="m45.9 57.7c0.1 0-0.1 0.3-0.4 0.5-0.2 0.2-0.4 0.4-0.4 0.3-0.1 0 0.1-0.3 0.3-0.5 0.3-0.2 0.5-0.4 0.5-0.3z"/><path class="j" d="m47 56.8c0.1 0.1-0.1 0.4-0.3 0.6-0.3 0.2-0.5 0.4-0.5 0.3 0 0 0.1-0.3 0.4-0.5 0.2-0.2 0.4-0.4 0.4-0.4z"/><path class="j" d="m48.1 56c0.1 0-0.1 0.3-0.3 0.5-0.3 0.2-0.4 0.4-0.5 0.4 0-0.1 0.1-0.3 0.4-0.5 0.2-0.2 0.4-0.5 0.4-0.4z"/><path class="j" d="m49.2 55.1c0 0-0.1 0.3-0.3 0.5-0.3 0.2-0.4 0.4-0.5 0.4 0 0 0.1-0.3 0.3-0.5 0.3-0.3 0.5-0.5 0.5-0.4z"/><path class="j" d="m50.2 54.1c0.1 0.1 0 0.4-0.3 0.6-0.2 0.2-0.4 0.4-0.4 0.4-0.1-0.1 0-0.3 0.3-0.6 0.2-0.2 0.4-0.4 0.4-0.4z"/><path class="j" d="m51.2 53.1c0.1 0.1 0 0.4-0.3 0.6-0.2 0.3-0.4 0.5-0.4 0.4 0 0 0-0.3 0.3-0.5 0.2-0.3 0.4-0.5 0.4-0.5z"/><path class="j" d="m52.2 52.1c0 0.1-0.1 0.4-0.3 0.6-0.2 0.3-0.3 0.5-0.4 0.4 0 0 0-0.3 0.3-0.5 0.2-0.3 0.3-0.5 0.4-0.5z"/><path class="j" d="m53.1 51.1c0.1 0 0 0.3-0.2 0.6-0.3 0.2-0.4 0.5-0.4 0.4-0.1 0 0-0.3 0.2-0.5 0.2-0.3 0.4-0.5 0.4-0.5z"/><path class="j" d="m54 50c0.1 0.1 0 0.4-0.2 0.6-0.2 0.3-0.3 0.5-0.4 0.5 0-0.1 0-0.3 0.2-0.6 0.3-0.2 0.4-0.5 0.4-0.5z"/><path class="j" d="m54.9 49c0 0 0 0.3-0.2 0.6-0.2 0.2-0.3 0.4-0.4 0.4 0 0 0-0.3 0.2-0.6 0.2-0.2 0.4-0.5 0.4-0.4z"/><path class="j" d="m55.7 47.8c0.1 0.1 0 0.4-0.2 0.6-0.2 0.3-0.3 0.5-0.3 0.5 0 0 0-0.3 0.2-0.6 0.2-0.2 0.3-0.5 0.3-0.5z"/><path class="j" d="m56.6 46.7c0 0 0 0.3-0.2 0.6-0.2 0.3-0.3 0.5-0.4 0.5 0 0 0-0.3 0.2-0.6 0.2-0.3 0.3-0.5 0.4-0.5z"/><path class="j" d="m57.3 45.5c0.1 0.1 0 0.4-0.1 0.7-0.2 0.2-0.3 0.5-0.4 0.4 0 0 0-0.3 0.2-0.6 0.2-0.2 0.3-0.5 0.3-0.5z"/><path class="j" d="m58 44.3c0.1 0.1 0.1 0.4-0.1 0.7-0.2 0.3-0.2 0.5-0.3 0.5 0-0.1 0-0.3 0.1-0.6 0.2-0.3 0.3-0.6 0.3-0.6z"/><path class="j" d="m58.7 43.1c0.1 0.1 0.1 0.4-0.1 0.7-0.1 0.3-0.2 0.5-0.3 0.5 0-0.1 0-0.3 0.1-0.6 0.2-0.3 0.3-0.6 0.3-0.6z"/><path class="j" d="m59.4 41.9c0 0 0 0.3-0.1 0.6-0.2 0.3-0.2 0.6-0.3 0.5 0 0 0-0.3 0.1-0.6 0.2-0.3 0.2-0.5 0.3-0.5z"/><path class="j" d="m60 40.6c0 0.1 0.1 0.4-0.1 0.7-0.1 0.3-0.2 0.5-0.2 0.5-0.1 0-0.1-0.3 0-0.6 0.2-0.3 0.2-0.6 0.3-0.6z"/><path class="j" d="m60.6 39.3c0 0.1 0 0.4-0.1 0.7-0.1 0.3-0.2 0.5-0.2 0.5-0.1 0-0.1-0.3 0-0.6 0.1-0.3 0.2-0.6 0.3-0.6z"/><path class="j" d="m61.1 38c0 0.1 0.1 0.4-0.1 0.7-0.1 0.3-0.1 0.6-0.2 0.5 0 0-0.1-0.3 0-0.6 0.2-0.3 0.2-0.6 0.3-0.6z"/><path class="j" d="m61.5 36.7c0.1 0 0.1 0.4 0 0.7-0.1 0.3-0.1 0.5-0.2 0.5 0 0-0.1-0.3 0-0.6 0.1-0.3 0.2-0.6 0.2-0.6z"/><path class="j" d="m61.9 35.4c0.1 0 0.1 0.3 0 0.6-0.1 0.4-0.1 0.6-0.1 0.6-0.1 0-0.1-0.3 0-0.6 0.1-0.3 0.1-0.6 0.1-0.6z"/><path class="j" d="m62.3 34c0 0.1 0.1 0.4 0 0.7-0.1 0.3-0.1 0.6-0.1 0.5-0.1 0-0.2-0.2-0.1-0.6 0.1-0.3 0.1-0.6 0.2-0.6z"/><path class="j" d="m62.5 32.7c0.1 0 0.2 0.3 0.1 0.6 0 0.3 0 0.6-0.1 0.6 0 0-0.1-0.3-0.1-0.6 0.1-0.4 0.1-0.6 0.1-0.6z"/><path class="j" d="m62.8 31.3c0 0 0.1 0.3 0.1 0.6-0.1 0.4-0.1 0.6-0.1 0.6-0.1 0-0.2-0.3-0.1-0.6 0.1-0.3 0-0.6 0.1-0.6z"/><path class="j" d="m63 30.1c0 0 0.2 0.3 0.1 0.6-0.1 0.3 0 0.6-0.1 0.6 0-0.1-0.1-0.3-0.1-0.6 0.1-0.4 0-0.7 0.1-0.6z"/><path class="j" d="m35.1 64.1c0 0.1-0.2 0.3-0.6 0.4-0.5 0.1-0.6-0.1 0-0.2 0.3-0.1 0.6-0.2 0.6-0.2z"/><path class="j" d="m36.3 63.8c0 0-0.2 0.2-0.5 0.3-0.4 0.1-0.6 0.2-0.6 0.2 0-0.1 0.2-0.3 0.5-0.4 0.3 0 0.6-0.2 0.6-0.1z"/><path class="j" d="m37.6 63.3c0.1 0.1-0.2 0.3-0.5 0.4-0.3 0.1-0.5 0.2-0.5 0.2 0-0.1 0.1-0.3 0.5-0.4 0.3-0.1 0.5-0.2 0.5-0.2z"/><path class="j" d="m39 62.8c0 0-0.2 0.3-0.5 0.4-0.4 0.1-0.6 0.3-0.6 0.2 0 0 0.2-0.2 0.5-0.4 0.3-0.1 0.5-0.3 0.6-0.2z"/><path class="j" d="m40.2 62.2c0.1 0.1-0.1 0.3-0.4 0.5-0.3 0.1-0.5 0.2-0.6 0.2 0-0.1 0.2-0.3 0.5-0.4 0.3-0.2 0.5-0.3 0.5-0.3z"/><path class="j" d="m41.5 61.6c0 0-0.1 0.3-0.4 0.5-0.3 0.1-0.5 0.3-0.6 0.2 0 0 0.2-0.3 0.5-0.4 0.3-0.2 0.5-0.4 0.5-0.3z"/><path class="j" d="m42.8 60.9c0 0.1-0.2 0.3-0.5 0.5-0.3 0.2-0.5 0.3-0.5 0.3 0-0.1 0.1-0.3 0.4-0.5 0.3-0.1 0.5-0.3 0.6-0.3z"/><path class="j" d="m44 60.2c0 0-0.2 0.3-0.4 0.5-0.3 0.2-0.5 0.3-0.5 0.3-0.1-0.1 0.1-0.3 0.4-0.5 0.2-0.1 0.4-0.3 0.5-0.3z"/><path class="j" d="m45.2 59.4c0 0.1-0.2 0.4-0.4 0.5-0.3 0.2-0.5 0.4-0.5 0.4-0.1-0.1 0.1-0.3 0.4-0.5 0.2-0.2 0.4-0.4 0.5-0.4z"/><path class="j" d="m46.3 58.6c0.1 0.1-0.1 0.4-0.4 0.6-0.2 0.1-0.4 0.3-0.4 0.3-0.1-0.1 0.1-0.3 0.3-0.5 0.3-0.2 0.5-0.4 0.5-0.4z"/><path class="j" d="m47.5 57.8c0 0-0.1 0.3-0.4 0.5-0.3 0.2-0.4 0.4-0.5 0.4 0-0.1 0.1-0.3 0.4-0.5 0.3-0.2 0.4-0.4 0.5-0.4z"/><path class="j" d="m48.6 56.9c0 0.1-0.1 0.3-0.4 0.6-0.2 0.2-0.4 0.4-0.4 0.3-0.1 0 0-0.3 0.3-0.5 0.3-0.2 0.4-0.4 0.5-0.4z"/><path class="j" d="m49.7 56c0 0-0.1 0.3-0.4 0.6-0.2 0.2-0.4 0.4-0.4 0.3-0.1 0 0-0.3 0.3-0.5 0.3-0.2 0.4-0.4 0.5-0.4z"/><path class="j" d="m50.7 55.1c0 0-0.1 0.3-0.3 0.5-0.3 0.2-0.4 0.4-0.4 0.4-0.1 0 0-0.3 0.3-0.5 0.2-0.3 0.4-0.5 0.4-0.4z"/><path class="j" d="m51.7 54.1c0.1 0 0 0.3-0.3 0.5-0.2 0.3-0.3 0.5-0.4 0.4 0 0 0.1-0.3 0.3-0.5 0.2-0.2 0.4-0.5 0.4-0.4z"/><path class="j" d="m52.7 53.1c0.1 0 0 0.3-0.3 0.5-0.2 0.3-0.3 0.5-0.4 0.5 0-0.1 0.1-0.4 0.3-0.6 0.2-0.2 0.4-0.5 0.4-0.4z"/><path class="j" d="m53.7 52c0 0.1-0.1 0.4-0.3 0.6-0.2 0.3-0.3 0.5-0.4 0.4 0 0 0-0.3 0.3-0.5 0.2-0.3 0.3-0.5 0.4-0.5z"/><path class="j" d="m54.6 50.9c0 0.1 0 0.4-0.2 0.6-0.3 0.3-0.4 0.5-0.4 0.5-0.1-0.1 0-0.3 0.2-0.6 0.2-0.2 0.4-0.5 0.4-0.5z"/><path class="j" d="m55.5 49.8c0 0.1 0 0.4-0.2 0.6-0.2 0.3-0.4 0.5-0.4 0.5 0 0 0-0.3 0.2-0.6 0.2-0.2 0.4-0.5 0.4-0.5z"/><path class="j" d="m56.4 48.7c0 0.1 0 0.4-0.3 0.6-0.2 0.3-0.3 0.5-0.3 0.5 0 0 0-0.3 0.2-0.6 0.2-0.3 0.3-0.5 0.4-0.5z"/><path class="j" d="m57.2 47.6c0 0 0 0.3-0.2 0.6-0.2 0.3-0.3 0.5-0.3 0.5-0.1-0.1-0.1-0.4 0.1-0.6 0.2-0.3 0.3-0.6 0.4-0.5z"/><path class="j" d="m58 46.4c0 0 0 0.3-0.2 0.6-0.2 0.3-0.3 0.5-0.3 0.5-0.1 0 0-0.3 0.1-0.6 0.2-0.3 0.3-0.5 0.4-0.5z"/><path class="j" d="m58.7 45.2c0.1 0 0 0.3-0.1 0.6-0.2 0.3-0.3 0.5-0.3 0.5-0.1 0-0.1-0.3 0.1-0.6 0.2-0.3 0.3-0.5 0.3-0.5z"/><path class="j" d="m59.4 44c0.1 0 0.1 0.3-0.1 0.6-0.2 0.3-0.2 0.5-0.3 0.5 0 0 0-0.3 0.1-0.6 0.2-0.3 0.3-0.6 0.3-0.5z"/><path class="j" d="m60.1 42.7c0 0 0.1 0.4-0.1 0.7-0.2 0.3-0.2 0.5-0.3 0.5 0-0.1 0-0.3 0.1-0.6 0.2-0.3 0.3-0.6 0.3-0.6z"/><path class="j" d="m60.7 41.5c0.1 0 0.1 0.3-0.1 0.6-0.1 0.3-0.2 0.5-0.2 0.5-0.1 0-0.1-0.3 0.1-0.6 0.1-0.3 0.2-0.6 0.2-0.5z"/><path class="j" d="m61.3 40.2c0.1 0 0.1 0.3-0.1 0.6-0.1 0.3-0.1 0.6-0.2 0.5 0 0-0.1-0.3 0.1-0.6 0.1-0.3 0.2-0.6 0.2-0.5z"/><path class="j" d="m61.8 38.8c0.1 0.1 0.1 0.4 0 0.7-0.1 0.3-0.2 0.5-0.2 0.5-0.1 0-0.1-0.3 0-0.6 0.1-0.3 0.2-0.6 0.2-0.6z"/><path class="j" d="m62.3 37.5c0.1 0 0.1 0.3 0 0.7-0.1 0.3-0.1 0.5-0.2 0.5 0 0-0.1-0.3 0-0.6 0.1-0.3 0.2-0.6 0.2-0.6z"/><path class="j" d="m62.8 36.2c0 0 0.1 0.3 0 0.6-0.1 0.3-0.2 0.6-0.2 0.6-0.1-0.1-0.1-0.3 0-0.6 0.1-0.4 0.1-0.6 0.2-0.6z"/><path class="j" d="m63.1 34.8c0.1 0 0.2 0.3 0.1 0.6-0.1 0.4-0.1 0.6-0.2 0.6 0 0-0.1-0.3 0-0.6 0.1-0.3 0.1-0.6 0.1-0.6z"/><path class="j" d="m63.4 33.4c0.1 0 0.2 0.3 0.1 0.7-0.1 0.3-0.1 0.5-0.1 0.5-0.1 0-0.2-0.3-0.1-0.6 0.1-0.3 0.1-0.6 0.1-0.6z"/><path class="j" d="m63.7 32c0.1 0 0.2 0.3 0.1 0.7-0.1 0.3-0.1 0.5-0.1 0.5-0.1 0-0.2-0.2-0.1-0.6 0.1-0.3 0-0.6 0.1-0.6z"/><path class="j" d="m63.9 32c-0.1 0-0.1-0.3-0.1-0.6 0-0.4 0-0.6 0.1-0.6 0.1 0 0.1 0.2 0.1 0.6 0 0.3 0 0.6-0.1 0.6z"/><path class="g" d="m65.3 31.7q0 0.2 0 0.3"/><path class="i" d="m65.1 32.8c-1.1 6.8-4.6 13.7-9.8 19.8-5.7 6.4-12.7 11-19.6 12.8"/><path class="g" d="m35.3 65.5q-0.1 0.1-0.3 0.1 0 0 0 0"/></svg>